<?xml version="1.0" encoding="UTF-8"?>
<svg xmlns="http://www.w3.org/2000/svg" version="1.1" viewBox="0 0 141.85 169.23">
  <defs>
    <style>
      .cls-1 {
        fill: #3e2d1c;
      }
    </style>
  </defs>
  <!-- Generator: Adobe Illustrator 28.6.0, SVG Export Plug-In . SVG Version: 1.2.0 Build 709)  -->
  <g>
    <g id="Lag_1">
      <g id="Lag_1-2" data-name="Lag_1">
        <path class="cls-1" d="M60.24,146.78c-7.43-30.2-17.65-59.57-30.37-87.94-2.55-5.68-11.13-2.51-11.18,3.03-.08,8.09,4.25,14.97,10.7,19.61,5.94,4.28,16.28,9.71,23.8,7.7s10.66-10.55,11.49-17.53c1.04-8.71-1.35-17.37-3.89-25.62-2.27-7.35-13.65-4.29-11.57,3.19,2.27,8.15,6.85,14.88,11.9,21.54s9.72,13.31,14,20.39c8.99,14.89,16.33,30.71,23.64,46.47,1.22,2.62,4.29,3.09,6.78,2.76l.38-.05c3.25-.44,4.92-4.58,4.19-7.38-.38-1.46-1.06-2.53-2.11-3.6-1.46-1.49-3.83-2.16-5.84-1.54-2.63.8-4.39,2.51-4.93,5.27s.95,4.05,1.58,6.56c1,3.98-2.61,4.52-4.88,1.7-3.35-4.17-5.3-10.55-6.78-15.6-2.01-6.86-1.6-13.2,1.43-19.7,5.32-11.43,14.6-20.42,18.96-32.39,3.8-10.45,2.64-22.35-4.91-30.78-5.17-5.76-13.63,2.75-8.49,8.49,9.46,10.55-1.06,25.64-7.33,34.71-8.47,12.26-15.51,24.94-11.91,40.3,2.38,10.17,7.97,27.5,20.33,28.97,5.54.66,10.81-2.21,13.67-6.98,1.31-2.19,2.19-4.84,2.25-7.4.03-1.26-.1-2.62-.43-3.84-.28-.86-.6-1.69-.98-2.51-.64-1.58-.88-1.33-.72.75l-4.19,4.19.51-.16-5.84-1.54-.98-1.69,4.19-7.38-.38.05,6.78,2.76c-7.06-15.22-14.14-30.48-22.71-44.93-4.24-7.14-8.88-13.99-13.9-20.6-4.71-6.2-9.58-12.38-11.71-20l-11.57,3.19c1.43,4.62,2.9,9.32,3.49,14.14.37,3.06,1.05,11.79-2.25,13.83-2.52,1.56-9.85-2.83-12.16-4.2-4.17-2.46-7.64-6.02-7.6-11.12l-11.18,3.03c12.29,27.41,21.98,55.91,29.16,85.07,1.84,7.49,13.42,4.32,11.57-3.19h0v-.03Z"/>
        <path class="cls-1" d="M89.4,34.51c7.72,0,7.73-12,0-12s-7.73,12,0,12h0Z"/>
      </g>
    </g>
  </g>
</svg>